<?xml version="1.0" standalone="no"?>
<!DOCTYPE svg PUBLIC "-//W3C//DTD SVG 20010904//EN"
 "http://www.w3.org/TR/2001/REC-SVG-20010904/DTD/svg10.dtd">
<svg version="1.0" xmlns="http://www.w3.org/2000/svg"
 width="1024.000000pt" height="1024.000000pt" viewBox="0 0 1024.000000 1024.000000"
 preserveAspectRatio="xMidYMid meet">

<g transform="translate(0.000000,1024.000000) scale(0.100000,-0.100000)"
fill="#FFD166" stroke="none">
<path d="M4805 8764 c-16 -2 -70 -9 -120 -15 -506 -62 -976 -223 -1465 -502
-506 -289 -997 -779 -1322 -1322 -429 -716 -594 -1600 -448 -2403 11 -59 20
-110 20 -114 0 -4 35 9 78 28 234 107 605 254 1067 423 417 153 569 205 601
205 39 0 79 -26 104 -67 26 -42 25 -86 -3 -128 -21 -31 -39 -40 -227 -104
-113 -39 -281 -99 -375 -134 -355 -133 -1157 -459 -1178 -480 -9 -9 67 -233
130 -381 66 -155 145 -319 204 -423 60 -106 225 -357 266 -405 l28 -33 150
147 c269 263 641 630 1095 1079 245 242 681 672 970 955 289 283 622 610 741
726 l216 212 -76 6 c-42 3 -137 8 -211 11 -74 4 -247 12 -385 20 -137 8 -356
19 -485 25 -451 20 -540 29 -596 54 -61 28 -115 82 -146 145 -31 62 -31 166
-1 232 27 61 83 121 130 142 37 17 247 61 1098 232 466 94 1011 205 1570 320
204 42 523 107 710 145 701 142 905 187 905 197 0 3 -42 49 -92 102 -406 420
-942 753 -1508 936 -176 56 -458 122 -630 146 -126 17 -214 22 -470 24 -173 2
-328 1 -345 -1z m-1113 -3024 c39 -39 40 -42 36 -95 -8 -89 -15 -94 -273 -165
-219 -61 -645 -191 -835 -255 -91 -30 -182 -55 -202 -55 -72 0 -132 82 -114
154 18 71 68 94 531 236 430 133 735 218 779 219 32 1 45 -6 78 -39z"/>
<path d="M7959 7393 c-34 -90 -246 -668 -302 -823 -62 -172 -291 -805 -332
-915 -77 -209 -220 -598 -255 -695 -113 -315 -415 -1144 -436 -1200 -37 -95
-67 -142 -123 -192 -61 -55 -117 -73 -205 -66 -107 9 -186 64 -242 168 -18 33
-19 76 -24 850 l-5 815 -295 -290 c-162 -160 -470 -461 -685 -670 -214 -208
-482 -469 -595 -580 -387 -378 -596 -582 -1098 -1070 l-503 -489 23 -18 c226
-178 659 -402 1015 -527 228 -80 625 -173 646 -152 7 7 172 373 287 636 26 61
140 317 252 570 113 253 240 540 283 638 86 196 110 227 173 227 79 0 143 -74
124 -143 -9 -29 -100 -241 -192 -447 -34 -75 -239 -536 -356 -800 -23 -52 -89
-201 -146 -330 -161 -363 -172 -389 -164 -397 13 -14 563 -9 671 5 604 79
1022 213 1529 492 316 173 580 382 868 688 487 515 801 1170 922 1922 62 382
62 709 0 1080 -85 511 -281 997 -574 1430 -53 77 -230 304 -241 308 -5 2 -14
-9 -20 -25z m-1985 -4307 c45 -19 76 -61 76 -104 0 -23 -45 -141 -131 -341
-191 -445 -211 -486 -247 -505 -62 -32 -145 -12 -173 41 -20 38 -14 83 25 169
19 43 94 216 167 384 72 168 140 315 152 328 18 19 58 37 90 41 4 1 22 -5 41
-13z"/>
</g>
</svg>
